<svg fill="#666666" width="48px" height="48px" viewBox="0 0 1.44 1.44" xmlns="http://www.w3.org/2000/svg">
    <path
        d="M1.229 0.211a0.718 0.718 0 0 0 -0.509 -0.211C0.322 0 0 0.322 0 0.72c0 0.199 0.081 0.379 0.211 0.509A0.718 0.718 0 0 0 0.72 1.44c0.398 0 0.72 -0.322 0.72 -0.72 0 -0.199 -0.081 -0.379 -0.211 -0.509m-0.093 0.926a0.588 0.588 0 0 1 -0.417 0.173c-0.325 0 -0.589 -0.264 -0.589 -0.589a0.588 0.588 0 0 1 0.173 -0.417 0.587 0.587 0 0 1 0.417 -0.173c0.325 0 0.589 0.264 0.589 0.589a0.587 0.587 0 0 1 -0.173 0.417z" />
    <path
        d="m0.812 0.72 0.231 -0.231a0.065 0.065 0 0 0 -0.093 -0.092l0 0 -0.231 0.231 -0.231 -0.231A0.065 0.065 0 0 0 0.396 0.489l0 0 0.231 0.231 -0.231 0.231a0.065 0.065 0 1 0 0.092 0.093l0 0 0.231 -0.231 0.231 0.231a0.065 0.065 0 1 0 0.093 -0.092l0 0z" />
</svg>