<svg width="13" height="12" viewBox="0 0 13 12" fill="none" xmlns="http://www.w3.org/2000/svg">
<path d="M5.15363 0.501807C5.53809 -0.167158 6.50322 -0.167157 6.88767 0.501808L8.16417 2.72296C8.30079 2.96068 8.52903 3.13189 8.79549 3.19651L11.2763 3.79816C11.9947 3.97241 12.2822 4.83905 11.8105 5.40819L10.0956 7.47689C9.92865 7.67826 9.84726 7.93702 9.86886 8.19768L10.0912 10.8803C10.1539 11.6372 9.38329 12.185 8.68909 11.877L6.42617 10.8731C6.16796 10.7585 5.87334 10.7585 5.61513 10.8731L3.35222 11.877C2.65801 12.185 1.88739 11.6372 1.95011 10.8803L2.17244 8.19769C2.19405 7.93702 2.11266 7.67826 1.94573 7.47689L0.230853 5.40819C-0.240945 4.83905 0.0465918 3.97241 0.765033 3.79816L3.24581 3.19651C3.51228 3.13189 3.74052 2.96068 3.87714 2.72296L5.15363 0.501807Z" fill="#FFCC00"/>
</svg>
